<mxfile host="app.diagrams.net" modified="2023-09-23T02:54:54.193Z" agent="Mozilla/5.0 (Windows NT 10.0; Win64; x64) AppleWebKit/537.36 (KHTML, like Gecko) Chrome/116.0.0.0 Safari/537.36" version="21.8.0" etag="3rdQ11n3cl0ZfKdYiC6f" type="github">
  <diagram name="第 1 页" id="YON0Tj4wZz8LQOeGunky">
    <mxGraphModel>
      <root>
        <mxCell id="0" />
        <mxCell id="1" parent="0" />
      </root>
    </mxGraphModel>
  </diagram>
</mxfile>
